<svg version="1.2" xmlns="http://www.w3.org/2000/svg" viewBox="0 0 352 300" width="500" height="500">
	<title>1157-ai</title>
	<style>
		.s0 { fill: #ffffff } 
		.s1 { fill: #3f3f3f } 
		.s2 { fill: #bca17d } 
	</style>
	<g id="Layer 1">
		<g id="&lt;Group&gt;">
			<g id="&lt;Group&gt;">
				<g id="&lt;Group&gt;">
					<g id="&lt;Group&gt;">
						<g id="&lt;Group&gt;">
							<g id="&lt;Group&gt;">
								<path id="&lt;Path&gt;" class="s0" d="m252.4 61.1h-146.1c0 8.9-7.2 16.1-16.1 16.1v80.4c8.9 0 16.1 7.3 16.1 16.2h146.1c0-8.9 7.2-16.2 16.1-16.2v-80.4c-8.9 0-16.1-7.2-16.1-16.1z"/>
							</g>
						</g>
						<g id="&lt;Group&gt;">
							<g id="&lt;Group&gt;">
								<path id="&lt;Compound Path&gt;" fill-rule="evenodd" class="s1" d="m254.1 175.5h-149.5v-1.7c0-8-6.5-14.4-14.4-14.4h-1.7v-83.9h1.7c7.9 0 14.4-6.5 14.4-14.4v-1.7h149.5v1.7c0 7.9 6.4 14.4 14.4 14.4h1.7v83.9h-1.7c-8 0-14.4 6.4-14.4 14.4zm-146.2-3.5h142.8c0.8-8.5 7.6-15.2 16-16v-77.2c-8.4-0.8-15.2-7.5-16-16h-142.8c-0.8 8.5-7.5 15.2-16 16v77.2c8.5 0.8 15.2 7.5 16 16z"/>
							</g>
						</g>
					</g>
					<g id="&lt;Group&gt;">
						<g id="&lt;Group&gt;">
							<g id="&lt;Group&gt;">
								<path id="&lt;Compound Path&gt;" fill-rule="evenodd" class="s1" d="m250.2 164.4h-141.8v-1.4c0-3.5-2.8-6.3-6.2-6.3h-1.5v-78.5h1.5c3.4 0 6.2-2.9 6.2-6.3v-1.5h141.8v1.5c0 3.4 2.8 6.3 6.3 6.3h1.5v78.5h-1.5c-3.5 0-6.3 2.8-6.3 6.3zm-139-2.9h136.2c0.7-3.9 3.7-7 7.6-7.6v-73c-3.9-0.6-6.9-3.7-7.6-7.6h-136.2c-0.6 3.9-3.7 7-7.6 7.6v73c3.9 0.6 7 3.7 7.6 7.6z"/>
							</g>
						</g>
					</g>
					<g id="&lt;Group&gt;">
						<g id="&lt;Group&gt;">
							<g id="&lt;Group&gt;">
								<g id="&lt;Group&gt;">
									<path id="&lt;Path&gt;" class="s1" d="m122.1 151.4c-0.5 0-0.9-0.4-0.9-0.9v-69.2c0-0.5 0.4-0.8 0.9-0.8 0.5 0 0.8 0.3 0.8 0.8v69.2c0 0.5-0.3 0.9-0.8 0.9z"/>
								</g>
							</g>
						</g>
						<g id="&lt;Group&gt;">
							<g id="&lt;Group&gt;">
								<g id="&lt;Group&gt;">
									<path id="&lt;Path&gt;" class="s1" d="m236.6 151.4c-0.5 0-0.9-0.4-0.9-0.9v-69.2c0-0.5 0.4-0.8 0.9-0.8 0.5 0 0.9 0.3 0.9 0.8v69.2c0 0.5-0.4 0.9-0.9 0.9z"/>
								</g>
							</g>
						</g>
					</g>
					<g id="&lt;Group&gt;">
						<g id="&lt;Group&gt;">
							<g id="&lt;Group&gt;">
								<path id="&lt;Path&gt;" class="s1" d="m233 132.6h-107.3v-34.7h107.3z"/>
							</g>
						</g>
					</g>
					<g id="&lt;Group&gt;">
						<g id="&lt;Group&gt;">
							<g id="&lt;Group&gt;">
								<path id="&lt;Path&gt;" class="s1" d="m94.9 86.1c0 3.1-2.1 5.5-4.7 5.5v-11c2.6 0 4.7 2.5 4.7 5.5z"/>
							</g>
						</g>
					</g>
					<g id="&lt;Group&gt;">
						<g id="&lt;Group&gt;">
							<g id="&lt;Group&gt;">
								<path id="&lt;Path&gt;" class="s1" d="m94.9 101.3c0 3-2.1 5.5-4.7 5.5v-11c2.6 0 4.7 2.5 4.7 5.5z"/>
							</g>
						</g>
					</g>
					<g id="&lt;Group&gt;">
						<g id="&lt;Group&gt;">
							<g id="&lt;Group&gt;">
								<path id="&lt;Path&gt;" class="s1" d="m94.9 116.4c0 3.1-2.1 5.5-4.7 5.5v-11c2.6 0 4.7 2.5 4.7 5.5z"/>
							</g>
						</g>
					</g>
					<g id="&lt;Group&gt;">
						<g id="&lt;Group&gt;">
							<g id="&lt;Group&gt;">
								<path id="&lt;Path&gt;" class="s1" d="m94.9 131.6c0 3-2.1 5.5-4.7 5.5v-11c2.6 0 4.7 2.4 4.7 5.5z"/>
							</g>
						</g>
					</g>
					<g id="&lt;Group&gt;">
						<g id="&lt;Group&gt;">
							<g id="&lt;Group&gt;">
								<path id="&lt;Path&gt;" class="s1" d="m94.9 146.7c0 3.1-2.1 5.5-4.7 5.5v-11c2.6 0 4.7 2.5 4.7 5.5z"/>
							</g>
						</g>
					</g>
					<g id="&lt;Group&gt;">
						<g id="&lt;Group&gt;">
							<g id="&lt;Group&gt;">
								<path id="&lt;Path&gt;" class="s1" d="m268.5 80.6v11c-2.6 0-4.7-2.4-4.7-5.5 0-3 2.1-5.5 4.7-5.5z"/>
							</g>
						</g>
					</g>
					<g id="&lt;Group&gt;">
						<g id="&lt;Group&gt;">
							<g id="&lt;Group&gt;">
								<path id="&lt;Path&gt;" class="s1" d="m268.5 95.8v11c-2.6 0-4.7-2.5-4.7-5.5 0-3 2.1-5.5 4.7-5.5z"/>
							</g>
						</g>
					</g>
					<g id="&lt;Group&gt;">
						<g id="&lt;Group&gt;">
							<g id="&lt;Group&gt;">
								<path id="&lt;Path&gt;" class="s1" d="m268.5 110.9v11c-2.6 0-4.7-2.4-4.7-5.5 0-3 2.1-5.5 4.7-5.5z"/>
							</g>
						</g>
					</g>
					<g id="&lt;Group&gt;">
						<g id="&lt;Group&gt;">
							<g id="&lt;Group&gt;">
								<path id="&lt;Path&gt;" class="s1" d="m268.5 126.1v11c-2.6 0-4.7-2.5-4.7-5.5 0-3.1 2.1-5.5 4.7-5.5z"/>
							</g>
						</g>
					</g>
					<g id="&lt;Group&gt;">
						<g id="&lt;Group&gt;">
							<g id="&lt;Group&gt;">
								<path id="&lt;Path&gt;" class="s1" d="m268.5 141.2v11c-2.6 0-4.7-2.4-4.7-5.5 0-3 2.1-5.5 4.7-5.5z"/>
							</g>
						</g>
					</g>
				</g>
			</g>
			<g id="&lt;Group&gt;">
				<g id="&lt;Group&gt;">
					<path id="&lt;Compound Path&gt;" class="s2" d="m135.1 122.7q-1.2-1.1-1.2-3.2 0-4.9 0-9.7 0-2.1 1.2-3.3 1.1-1.2 3.4-1.2 2.3 0 3.5 1.2 1.1 1.2 1.1 3.3 0 0.9 0 1.9-1.5 0-2.9 0 0-1.1 0-2.1 0-1.7-1.6-1.7-1.6 0-1.6 1.7 0 5 0 10.1 0 1.6 1.6 1.6 1.6 0 1.6-1.6 0-1.4 0-2.8 1.4 0 2.9 0 0 1.3 0 2.6 0 2.1-1.1 3.2-1.2 1.2-3.5 1.2-2.3 0-3.4-1.2z"/>
				</g>
				<g id="&lt;Group&gt;">
					<path id="&lt;Compound Path&gt;" class="s2" d="m149.6 105.6q1.6 0 3.2 0 0 9 0 18-1.6 0-3.2 0 0-9 0-18z"/>
				</g>
				<g id="&lt;Group&gt;">
					<path id="&lt;Compound Path&gt;" class="s2" d="m159.7 105.6q2 0 4 0 1.5 5.4 3 10.8 0.1 0 0.1 0 0-5.4 0-10.8 1.4 0 2.8 0 0 9 0 18-1.6 0-3.2 0-1.9-6.6-3.8-13.1 0 0-0.1 0 0 6.5 0 13.1-1.4 0-2.8 0 0-9 0-18z"/>
				</g>
				<g id="&lt;Group&gt;">
					<path id="&lt;Compound Path&gt;" class="s2" d="m176.5 105.6q4.3 0 8.6 0 0 1.3 0 2.6-2.7 0-5.4 0 0 2.4 0 4.7 2.2 0 4.3 0 0 1.3 0 2.6-2.1 0-4.3 0 0 2.8 0 5.6 2.7 0 5.4 0 0 1.2 0 2.5-4.3 0-8.6 0 0-9 0-18z"/>
				</g>
				<g id="&lt;Group&gt;">
					<path id="&lt;Compound Path&gt;" class="s2" d="m191.5 105.6q2.3 0 4.5 0 1 6.5 2 12.9 0.1 0 0.1 0 1-6.4 2-12.9 2.2 0 4.5 0 0 9 0 18-1.5 0-3 0 0-6.8 0-13.6 0 0-0.1 0-1.1 6.8-2.2 13.6-1.4 0-2.7 0-1.1-6.8-2.3-13.6 0 0 0 0 0 6.8 0 13.6-1.4 0-2.8 0 0-9 0-18z"/>
				</g>
				<g id="&lt;Group&gt;">
					<path id="&lt;Compound Path&gt;" fill-rule="evenodd" class="s2" d="m214 105.6q2.1 0 4.2 0 1.7 9 3.3 18-1.6 0-3.2 0-0.2-1.8-0.5-3.6 0 0.1 0 0.1-1.8 0-3.6 0-0.3 1.8-0.6 3.5-1.4 0-2.9 0 1.6-9 3.3-18zm3.4 12.1q-0.7-4.5-1.4-9 0 0-0.1 0-0.7 4.5-1.3 9 1.4 0 2.8 0z"/>
				</g>
			</g>
			<g id="&lt;Group&gt;">
				<g id="&lt;Group&gt;">
					<path id="&lt;Compound Path&gt;" fill-rule="evenodd" class="s1" d="m145.3 78.2q2.3 0 4.5 0 2.3 0 3.4 0.9 1.1 0.9 1.1 2.7 0 0.5 0 1 0 2.5-2 3.1 0 0 0 0.1 1.1 0.2 1.6 1.1 0.4 0.8 0.4 2.2 0 1.4 0 2.8 0 0.7 0.1 1.1 0 0.4 0.2 0.8-1.5 0-3 0-0.2-0.4-0.3-0.7 0-0.4 0-1.2 0-1.5 0-2.9 0-1.1-0.4-1.5-0.5-0.5-1.5-0.5-0.5 0-1.1 0 0 3.4 0 6.8-1.5 0-3 0 0-7.9 0-15.8zm4.1 6.8q1 0 1.4-0.4 0.5-0.4 0.5-1.3 0-0.6 0-1.2 0-0.9-0.4-1.3-0.4-0.3-1.2-0.3-0.7 0-1.4 0 0 2.2 0 4.5 0.6 0 1.1 0z"/>
				</g>
				<g id="&lt;Group&gt;">
					<path id="&lt;Compound Path&gt;" class="s1" d="m159.7 78.2q4.1 0 8.2 0 0 1.1 0 2.3-2.6 0-5.2 0 0 2 0 4.1 2.1 0 4.2 0 0 1.2 0 2.3-2.1 0-4.2 0 0 2.4 0 4.8 2.6 0 5.2 0 0 1.2 0 2.3-4.1 0-8.2 0 0-7.9 0-15.8z"/>
				</g>
				<g id="&lt;Group&gt;">
					<path id="&lt;Compound Path&gt;" class="s1" d="m175.3 80.5q-1.5 0-3.1 0 0-1.2 0-2.3 4.7 0 9.3 0 0 1.1 0 2.3-1.6 0-3.1 0 0 6.7 0 13.5-1.5 0-3.1 0 0-6.8 0-13.5z"/>
				</g>
				<g id="&lt;Group&gt;">
					<path id="&lt;Compound Path&gt;" fill-rule="evenodd" class="s1" d="m186.3 78.2q2.2 0 4.5 0 2.3 0 3.4 0.9 1 0.9 1 2.7 0 0.5 0 1 0 2.5-1.9 3.1 0 0 0 0.1 1.1 0.2 1.5 1.1 0.5 0.8 0.5 2.2 0 1.4 0 2.8 0 0.7 0 1.1 0.1 0.4 0.3 0.8-1.5 0-3.1 0-0.1-0.4-0.2-0.7-0.1-0.4-0.1-1.2 0-1.5 0-2.9 0-1.1-0.4-1.5-0.4-0.5-1.4-0.5-0.6 0-1.1 0 0 3.4 0 6.8-1.5 0-3 0 0-7.9 0-15.8zm4.1 6.8q0.9 0 1.4-0.4 0.4-0.4 0.4-1.3 0-0.6 0-1.2 0-0.9-0.4-1.3-0.3-0.3-1.1-0.3-0.7 0-1.4 0 0 2.2 0 4.5 0.6 0 1.1 0z"/>
				</g>
				<g id="&lt;Group&gt;">
					<path id="&lt;Compound Path&gt;" fill-rule="evenodd" class="s1" d="m201.6 93.2q-1.2-1.1-1.2-2.9 0-4.2 0-8.4 0-1.8 1.2-2.9 1.2-1 3.4-1 2.3 0 3.4 1 1.2 1.1 1.2 2.9 0 4.2 0 8.4 0 1.8-1.2 2.9-1.1 1-3.4 1-2.2 0-3.4-1zm5-2.8q0-4.3 0-8.6 0-1.6-1.6-1.6-1.5 0-1.5 1.6 0 4.3 0 8.6 0 1.6 1.5 1.6 1.6 0 1.6-1.6z"/>
				</g>
			</g>
			<g id="&lt;Group&gt;">
				<g id="&lt;Group&gt;">
					<path id="&lt;Compound Path&gt;" class="s1" d="m147.2 138.5q1.9 0 3.8 0 1.5 4.7 3 9.5 0 0 0 0 0-4.8 0-9.5 1.4 0 2.7 0 0 7.9 0 15.8-1.5 0-3.1 0-1.8-5.8-3.6-11.5 0 0-0.1 0 0 5.7 0 11.5-1.3 0-2.7 0 0-7.9 0-15.8z"/>
				</g>
				<g id="&lt;Group&gt;">
					<path id="&lt;Compound Path&gt;" class="s1" d="m162.3 138.5q1.5 0 3 0 0 7.9 0 15.8-1.5 0-3 0 0-7.9 0-15.8z"/>
				</g>
				<g id="&lt;Group&gt;">
					<path id="&lt;Compound Path&gt;" class="s1" d="m171.8 153.5q-1.2-1-1.2-2.9 0-4.2 0-8.3 0-2 1.2-3 1.1-1 3.3-1 2.2 0 3.4 1 1.1 1 1.1 3 0 0.6 0 1.3-1.4 0-2.8 0 0-0.7 0-1.5 0-1.6-1.6-1.6-1.6 0-1.6 1.6 0 4.3 0 8.6 0 1.6 1.6 1.6 1.6 0 1.6-1.6 0-1.5 0-3.1-0.8 0-1.5 0 0-1.1 0-2.2 2.2 0 4.3 0 0 2.6 0 5.2 0 1.9-1.1 2.9-1.2 1-3.4 1-2.2 0-3.3-1z"/>
				</g>
				<g id="&lt;Group&gt;">
					<path id="&lt;Compound Path&gt;" class="s1" d="m184.9 138.5q1.5 0 3 0 0 3.2 0 6.4 1.6 0 3.3 0 0-3.2 0-6.4 1.5 0 3 0 0 7.9 0 15.8-1.5 0-3 0 0-3.5 0-7.1-1.7 0-3.3 0 0 3.6 0 7.1-1.5 0-3 0 0-7.9 0-15.8z"/>
				</g>
				<g id="&lt;Group&gt;">
					<path id="&lt;Compound Path&gt;" class="s1" d="m202.1 140.8q-1.6 0-3.2 0 0-1.2 0-2.3 4.7 0 9.4 0 0 1.1 0 2.3-1.6 0-3.2 0 0 6.7 0 13.5-1.5 0-3 0 0-6.8 0-13.5z"/>
				</g>
			</g>
			<g id="&lt;Group&gt;">
				<g id="&lt;Group&gt;">
					<path id="&lt;Compound Path&gt;" class="s1" d="m32 186.4q5 0 10.1 0-0.1 19.8-0.1 39.6 4.8-1 9.8-2-0.9 4.4-1.8 9-9 2.3-18 4.9 0-25.8 0-51.5z"/>
				</g>
				<g id="&lt;Group&gt;">
					<path id="&lt;Compound Path&gt;" fill-rule="evenodd" class="s1" d="m81.5 220.4c0 3-1.6 5.9-7.1 7q-5.7 1.2-11.3 2.5c-5.5 1.2-7-1.4-7-4.8q0.2-16.4 0.3-32.9c0-3.5 2.1-5.8 6.7-5.8q6.1 0 12.3 0c4.6 0 6.6 2 6.5 5.1q-0.2 14.5-0.4 28.9zm-14.3-26.5c-0.7 0-0.9 0.3-0.9 0.8q-0.2 13.1-0.3 26.1c0 0.7 0.1 0.9 0.9 0.8q1.9-0.4 3.8-0.7c0.8-0.1 0.9-0.4 0.9-1q0.2-12.7 0.3-25.4c0-0.5-0.2-0.8-0.9-0.8q-1.9 0.1-3.8 0.2z"/>
				</g>
				<g id="&lt;Group&gt;">
					<path id="&lt;Compound Path&gt;" fill-rule="evenodd" class="s1" d="m112.5 207c0 1.6-1.6 3.2-4.5 3.5q2.5 5.4 5 10.6-5.1 0.6-10.2 1.4-2.3-5.4-4.6-11-0.6 0-1.3 0.1-0.1 5.9-0.2 11.8-4.9 0.8-9.8 1.7 0.3-19.4 0.6-38.7 9.3 0 18.7 0c4.6 0 6.6 1.8 6.5 4.5q-0.1 8.1-0.2 16.1zm-15.3-14.1q-0.1 6.4-0.2 12.7 2.4-0.2 4.8-0.3c0.8-0.1 1-0.3 1-0.9q0.1-5.5 0.2-10.9c0-0.5-0.3-0.8-1-0.8q-2.4 0.1-4.8 0.2z"/>
				</g>
				<g id="&lt;Group&gt;">
					<path id="&lt;Compound Path&gt;" class="s1" d="m118.4 186.4q9.6 0 19.2 0 0.8 3 1.6 6-5.4 0-10.8 0.1 0 3.9-0.1 7.9 4.1-0.2 8.2-0.3 0 2.7-0.1 5.5-4.1 0.2-8.1 0.5-0.1 3.6-0.1 7.2 5.1-0.5 10.3-0.8-0.8 3.1-1.7 6.1-9.5 0.8-18.9 1.9 0.2-17.1 0.5-34.1z"/>
				</g>
				<g id="&lt;Group&gt;">
					<path id="&lt;Compound Path&gt;" class="s1" d="m153.5 202.8q-0.1 7.4-0.1 14.8-4.9 0.2-9.7 0.5 0.2-15.9 0.3-31.7 5.2 0 10.4 0 2.7 6.5 5.3 13 2.8-6.5 5.5-13 5.2 0 10.4 0 0 15.3 0 30.5-4.8 0.1-9.7 0.2 0.1-7.3 0.1-14.5-3.2 6.2-6.4 12.5-3.1-6.1-6.1-12.3z"/>
				</g>
				<g id="&lt;Group&gt;">
					<path id="&lt;Compound Path&gt;" class="s1" d="m190.9 186.4q5 0 9.9 0 0.1 15.5 0.2 31-5-0.2-9.9-0.4-0.1-15.3-0.2-30.6z"/>
				</g>
				<g id="&lt;Group&gt;">
					<path id="&lt;Compound Path&gt;" fill-rule="evenodd" class="s1" d="m225.6 186.4c3.9 0 5.9 1.6 5.9 4q0.1 7.9 0.2 15.9c0.1 2.5-1.4 4.3-6.9 3.9q-4.3-0.2-8.5-0.5 0 4.3 0.1 8.5-5-0.3-9.9-0.6-0.1-15.6-0.3-31.2 9.7 0 19.4 0zm-9.5 5.6q0.1 6.2 0.1 12.5 2.5 0.1 4.9 0.2c0.9 0 1-0.2 1-0.6q-0.1-5.7-0.1-11.4c0-0.4-0.3-0.7-0.9-0.7q-2.5 0-5 0z"/>
				</g>
				<g id="&lt;Group&gt;">
					<path id="&lt;Compound Path&gt;" class="s1" d="m239.7 220.4q-1-3.3-1.9-6.5 5.3 0.4 10.6 1c0.9 0.1 1.2 0 1.2-0.6q-0.1-3.2-0.1-6.4c0-1-0.5-1.1-1.9-1.2q-2.5-0.2-5.1-0.3c-2.9-0.2-5.5-0.9-5.6-4.2q0-5.7-0.1-11.5c-0.1-2.6 1.9-4.3 6.6-4.3q6.8 0 13.6 0 0.9 3.4 1.8 6.8-5.6-0.2-11.2-0.3-1.2 0-1.2 0.7 0.1 3.2 0.1 6.4c0 0.7 0.5 0.9 1.5 1q3.1 0.1 6.2 0.3c3.1 0.2 4.9 1.3 5 4.1q0.1 6 0.2 12c0 4.1-1.9 5.3-7.5 4.5q-6.1-0.8-12.2-1.5z"/>
				</g>
				<g id="&lt;Group&gt;">
					<path id="&lt;Compound Path&gt;" class="s1" d="m272.6 225.2c-5.7-1-7.7-3-7.8-7.1q-0.2-15.9-0.5-31.7 5 0 10.1 0 0.2 15.7 0.4 31.5c0 0.6 0.2 0.9 1 1q1.7 0.3 3.4 0.5c0.9 0.2 1-0.1 1-0.7q-0.2-16.2-0.5-32.3 5.1 0 10.1 0 0.2 17.9 0.4 35.7c0.1 4.7-1.9 6.1-7.5 5q-5.1-1-10.1-1.9z"/>
				</g>
				<g id="&lt;Group&gt;">
					<path id="&lt;Compound Path&gt;" class="s1" d="m305 210.5q0.1 10.8 0.2 21.6-4.8-1.2-9.5-2.2-0.2-21.8-0.5-43.5 5.2 0 10.4 0 2.8 9.7 5.5 19.9 2.6-9.7 5.3-19.9 5.2 0 10.5 0 0 25.7 0 51.5-4.7-1.4-9.4-2.6-0.1-11.6-0.1-23.1-3.1 9.3-6.1 18-3.1-10.1-6.3-19.7z"/>
				</g>
			</g>
			<g id="&lt;Group&gt;">
				<g id="&lt;Group&gt;">
					<g id="&lt;Group&gt;">
						<path id="&lt;Path&gt;" class="s2" d="m178.2 51.5c-1 0-1.8-0.8-1.8-1.7q0-4.9 0-9.7c0-0.9 0.8-1.7 1.7-1.7q0 0 0 0c1 0 1.8 0.7 1.8 1.7q0 4.8 0.1 9.6c0 1-0.8 1.8-1.8 1.8q0 0 0 0z"/>
					</g>
				</g>
				<g id="&lt;Group&gt;">
					<g id="&lt;Group&gt;">
						<path id="&lt;Path&gt;" class="s2" d="m178.1 32.9q0 0 0 0c-1 0-1.7-0.8-1.7-1.8q0-6.4 0-12.8c0-1 0.8-1.8 1.8-1.8q0 0 0 0c1 0 1.8 0.8 1.8 1.8q-0.1 6.4-0.1 12.8c0 1-0.8 1.8-1.8 1.8z"/>
					</g>
				</g>
				<g id="&lt;Group&gt;">
					<g id="&lt;Group&gt;">
						<path id="&lt;Path&gt;" class="s2" d="m178.2 51.5c-1 0-1.8-0.8-1.8-1.7q0-4.9 0-9.7c0-0.9 0.8-1.7 1.7-1.7q0 0 0 0c1 0 1.8 0.7 1.8 1.7q0 4.8 0.1 9.6c0 1-0.8 1.8-1.8 1.8q0 0 0 0z"/>
					</g>
				</g>
				<g id="&lt;Group&gt;">
					<g id="&lt;Group&gt;">
						<path id="&lt;Path&gt;" class="s2" d="m178.1 32.9q0 0 0 0c-1 0-1.7-0.8-1.7-1.8q0-6.4 0-12.8c0-1 0.8-1.8 1.8-1.8q0 0 0 0c1 0 1.8 0.8 1.8 1.8q-0.1 6.4-0.1 12.8c0 1-0.8 1.8-1.8 1.8z"/>
					</g>
				</g>
				<g id="&lt;Group&gt;">
					<g id="&lt;Group&gt;">
						<path id="&lt;Path&gt;" class="s2" d="m147.1 50.3c-0.9 0-1.7-0.7-1.8-1.5-0.7-4.7-2.1-9.2-3.5-13.5-1.4-4.1-2.6-7.9-3.2-11.7-0.2-1 0.5-1.9 1.4-2.1 1-0.1 1.9 0.5 2.1 1.5 0.6 3.6 1.8 7.3 3 11.2 1.5 4.5 3 9.1 3.7 14 0.2 1-0.5 1.9-1.5 2.1q-0.1 0-0.2 0z"/>
					</g>
				</g>
				<g id="&lt;Group&gt;">
					<g id="&lt;Group&gt;">
						<path id="&lt;Path&gt;" class="s2" d="m113.9 55.1c-0.7 0-1.3-0.4-1.6-1-2.3-4.9-5.2-10-8.8-15.2-0.5-0.8-0.3-1.9 0.5-2.5 0.8-0.5 1.9-0.3 2.5 0.5 3.6 5.4 6.7 10.7 9 15.7 0.4 0.9 0.1 1.9-0.8 2.3q-0.4 0.2-0.8 0.2z"/>
					</g>
				</g>
				<g id="&lt;Group&gt;">
					<g id="&lt;Group&gt;">
						<path id="&lt;Path&gt;" class="s2" d="m82.9 71.2c-0.5 0-0.9-0.2-1.3-0.6l-8.2-8.2c-0.7-0.7-0.7-1.8 0-2.5 0.7-0.7 1.9-0.7 2.6 0l8.2 8.2c0.7 0.7 0.7 1.8 0 2.5-0.4 0.4-0.8 0.6-1.3 0.6z"/>
					</g>
				</g>
				<g id="&lt;Group&gt;">
					<g id="&lt;Group&gt;">
						<path id="&lt;Path&gt;" class="s2" d="m78.2 108.7q-0.5 0-0.9-0.2-3.7-2.2-7.5-4.3c-0.8-0.5-1.1-1.6-0.6-2.5 0.5-0.8 1.5-1.1 2.4-0.6q3.7 2.1 7.5 4.3c0.8 0.5 1.1 1.6 0.6 2.4-0.3 0.6-0.9 0.9-1.5 0.9z"/>
					</g>
				</g>
				<g id="&lt;Group&gt;">
					<g id="&lt;Group&gt;">
						<path id="&lt;Path&gt;" class="s2" d="m62.6 99.8q-0.4 0-0.9-0.3c-4.5-2.6-7.9-4.6-11.2-6.5-0.8-0.5-1.1-1.6-0.6-2.4 0.5-0.9 1.6-1.1 2.4-0.6 3.3 1.9 6.7 3.9 11.2 6.4 0.9 0.5 1.1 1.6 0.7 2.5-0.4 0.5-1 0.9-1.6 0.9z"/>
					</g>
				</g>
				<g id="&lt;Group&gt;">
					<g id="&lt;Group&gt;">
						<path id="&lt;Path&gt;" class="s2" d="m75.5 138.6q-0.3 0-0.5 0c-2.6-0.8-5.3-1.5-8.2-2.3-1-0.2-1.6-1.2-1.3-2.2 0.2-0.9 1.2-1.5 2.2-1.2 3 0.8 5.7 1.5 8.3 2.2 0.9 0.3 1.4 1.3 1.2 2.2-0.2 0.8-1 1.3-1.7 1.3z"/>
					</g>
				</g>
				<g id="&lt;Group&gt;">
					<g id="&lt;Group&gt;">
						<path id="&lt;Path&gt;" class="s2" d="m58.9 134.2q-0.2 0-0.4 0l-8.3-2.1c-1-0.2-1.5-1.2-1.3-2.1 0.2-1 1.2-1.6 2.1-1.3l8.4 2c0.9 0.3 1.5 1.2 1.2 2.2-0.2 0.8-0.9 1.3-1.7 1.3z"/>
					</g>
				</g>
				<g id="&lt;Group&gt;">
					<g id="&lt;Group&gt;">
						<path id="&lt;Path&gt;" class="s2" d="m41.6 129.9q-0.2 0-0.4-0.1-2.4-0.6-4.9-1.3c-0.9-0.3-1.5-1.2-1.2-2.2 0.3-0.9 1.2-1.5 2.2-1.2q2.4 0.6 4.8 1.3c0.9 0.2 1.5 1.2 1.3 2.2-0.3 0.8-1 1.3-1.8 1.3z"/>
					</g>
				</g>
				<g id="&lt;Group&gt;">
					<g id="&lt;Group&gt;">
						<path id="&lt;Path&gt;" class="s2" d="m76.8 166.5q-12.3 0-24.7 0c-0.9 0-1.7-0.8-1.7-1.8 0-1 0.8-1.8 1.7-1.8q12.4 0 24.7 0c1 0 1.8 0.8 1.8 1.8 0 1-0.8 1.8-1.8 1.8z"/>
					</g>
				</g>
				<g id="&lt;Group&gt;">
					<g id="&lt;Group&gt;">
						<path id="&lt;Path&gt;" class="s2" d="m31.8 166.5c-1 0-1.7-0.8-1.7-1.8-0.1-1 0.7-1.8 1.7-1.8h11.6c1 0 1.8 0.8 1.8 1.8 0 1-0.8 1.8-1.8 1.8h-11.6z"/>
					</g>
				</g>
				<g id="&lt;Group&gt;">
					<g id="&lt;Group&gt;">
						<path id="&lt;Path&gt;" class="s2" d="m279.5 166.5c-0.9 0-1.7-0.8-1.7-1.8 0-1 0.8-1.8 1.7-1.8h10.8c1 0 1.8 0.8 1.8 1.8 0 1-0.8 1.8-1.8 1.8h-10.8q0 0 0 0z"/>
					</g>
				</g>
				<g id="&lt;Group&gt;">
					<g id="&lt;Group&gt;">
						<path id="&lt;Path&gt;" class="s2" d="m305.8 166.5h-6.5c-0.9 0-1.7-0.8-1.7-1.8 0-1 0.8-1.8 1.7-1.8h6.5c1 0 1.8 0.8 1.8 1.8 0 1-0.8 1.8-1.8 1.8z"/>
					</g>
				</g>
				<g id="&lt;Group&gt;">
					<g id="&lt;Group&gt;">
						<path id="&lt;Path&gt;" class="s2" d="m324.6 166.5q0 0 0 0h-10.1c-1 0-1.8-0.8-1.8-1.8 0-1 0.8-1.8 1.8-1.8h10.1c1 0 1.8 0.8 1.8 1.8 0 1-0.8 1.8-1.8 1.8z"/>
					</g>
				</g>
				<g id="&lt;Group&gt;">
					<g id="&lt;Group&gt;">
						<path id="&lt;Path&gt;" class="s2" d="m283.5 138.3c-0.8 0-1.6-0.6-1.8-1.4-0.2-0.9 0.4-1.9 1.3-2.1 3-0.8 6.1-1.6 10-2.7 0.9-0.3 1.9 0.2 2.2 1.2 0.3 0.9-0.3 1.9-1.2 2.2-3.9 1.1-7.1 2-10.1 2.7q-0.2 0.1-0.4 0.1z"/>
					</g>
				</g>
				<g id="&lt;Group&gt;">
					<g id="&lt;Group&gt;">
						<path id="&lt;Path&gt;" class="s2" d="m302 133.1c-0.8 0-1.5-0.5-1.7-1.3-0.3-1 0.2-1.9 1.2-2.2 5.6-1.7 11.6-3.3 17.7-4.5 1-0.2 1.9 0.4 2.1 1.4 0.2 0.9-0.4 1.9-1.4 2-5.9 1.2-11.9 2.9-17.4 4.5q-0.3 0.1-0.5 0.1z"/>
					</g>
				</g>
				<g id="&lt;Group&gt;">
					<g id="&lt;Group&gt;">
						<path id="&lt;Path&gt;" class="s2" d="m283.6 105.6c-0.6 0-1.1-0.3-1.5-0.8-0.5-0.8-0.3-1.9 0.5-2.4 2.7-1.9 5.5-3.6 8.2-5.3 0.9-0.5 2-0.2 2.5 0.6 0.5 0.8 0.2 1.9-0.6 2.4-2.7 1.7-5.5 3.4-8.1 5.2q-0.5 0.3-1 0.3z"/>
					</g>
				</g>
				<g id="&lt;Group&gt;">
					<g id="&lt;Group&gt;">
						<path id="&lt;Path&gt;" class="s2" d="m299.3 96.1c-0.7 0-1.3-0.3-1.6-0.9-0.4-0.9-0.1-2 0.8-2.4q2.8-1.5 5.7-2.9c0.9-0.4 2-0.1 2.4 0.8 0.4 0.9 0 2-0.9 2.4q-2.8 1.3-5.6 2.8-0.4 0.2-0.8 0.2z"/>
					</g>
				</g>
				<g id="&lt;Group&gt;">
					<g id="&lt;Group&gt;">
						<path id="&lt;Path&gt;" class="s2" d="m274.2 70.4c-0.4 0-0.9-0.1-1.2-0.5-0.7-0.7-0.7-1.8 0-2.5l7.4-7.5c0.7-0.7 1.9-0.7 2.6 0 0.7 0.7 0.7 1.8 0 2.5l-7.5 7.5c-0.4 0.4-0.8 0.5-1.3 0.5z"/>
					</g>
				</g>
				<g id="&lt;Group&gt;">
					<g id="&lt;Group&gt;">
						<path id="&lt;Path&gt;" class="s2" d="m242.9 54.5q-0.5 0-0.9-0.3c-0.9-0.5-1.2-1.6-0.7-2.4l8.6-14.8c0.4-0.8 1.5-1.1 2.4-0.6 0.8 0.5 1.1 1.6 0.6 2.4l-8.5 14.8c-0.3 0.5-0.9 0.9-1.5 0.9z"/>
					</g>
				</g>
				<g id="&lt;Group&gt;">
					<g id="&lt;Group&gt;">
						<path id="&lt;Path&gt;" class="s2" d="m209.3 50.3q-0.1 0-0.2 0c-1-0.2-1.7-1-1.5-2 0.6-4.9 2.1-9.4 3.5-13.7 1.3-3.7 2.6-7.5 3.2-11.6 0.2-1 1.1-1.6 2.1-1.5 1 0.2 1.6 1.1 1.4 2.1-0.7 4.3-2 8.3-3.3 12.1-1.5 4.4-2.8 8.4-3.4 13-0.1 0.9-0.9 1.6-1.8 1.6z"/>
					</g>
				</g>
			</g>
			<g id="&lt;Group&gt;">
				<g id="&lt;Group&gt;">
					<path id="&lt;Compound Path&gt;" class="s2" d="m122.1 245.7q-1.2-1-1.2-2.8v-8.5q0-1.9 1.2-2.9 1.1-1 3.3-1 2.1 0 3.3 1 1.1 1 1.1 2.9v1.6h-2.8v-1.8q0-1.4-1.5-1.4-1.6 0-1.6 1.4l0.1 8.8q0 1.5 1.5 1.5 1.5 0 1.5-1.5v-2.4h2.8v2.3q0 1.8-1.1 2.8-1.1 1-3.3 1-2.2 0-3.3-1z"/>
				</g>
				<g id="&lt;Group&gt;">
					<path id="&lt;Compound Path&gt;" fill-rule="evenodd" class="s2" d="m135.9 230.7h4.1l3.2 15.8h-3.1l-0.5-3.1h-3.5l-0.5 3.1h-2.8zm3.3 10.6l-1.4-7.8-1.3 7.8z"/>
				</g>
				<g id="&lt;Group&gt;">
					<path id="&lt;Compound Path&gt;" class="s2" d="m146.5 230.7h3l0.1 13.5h4.9v2.3h-8z"/>
				</g>
				<g id="&lt;Group&gt;">
					<path id="&lt;Compound Path&gt;" class="s2" d="m157.9 230.7h3v15.8h-3z"/>
				</g>
				<g id="&lt;Group&gt;">
					<path id="&lt;Compound Path&gt;" class="s2" d="m165.1 230.7h8v2.2h-5v4.4h3.9v2.3h-3.9v6.9h-3z"/>
				</g>
				<g id="&lt;Group&gt;">
					<path id="&lt;Compound Path&gt;" fill-rule="evenodd" class="s2" d="m177.5 245.6q-1.2-1-1.2-2.9v-8.3q0-1.9 1.1-2.9 1.2-1.1 3.4-1.1 2.3 0 3.5 1.1 1.1 1 1.1 2.9l0.1 8.3q0 1.9-1.2 2.9-1.2 1.1-3.4 1.1-2.3 0-3.4-1.1zm4.9-2.7v-8.7q0-1.5-1.6-1.5-1.5 0-1.5 1.5v8.7q0 1.5 1.6 1.5 1.5 0 1.5-1.5z"/>
				</g>
				<g id="&lt;Group&gt;">
					<path id="&lt;Compound Path&gt;" fill-rule="evenodd" class="s2" d="m189.4 230.6h4.5q2.3 0 3.4 0.9 1.1 0.9 1.1 2.8v0.9q0 2.5-2 3.2 1.1 0.3 1.5 1.1 0.5 0.8 0.5 2.2v2.8q0 0.7 0.1 1.1 0 0.4 0.2 0.8h-3q-0.2-0.4-0.3-0.7 0-0.3 0-1.2v-2.9q0-1.1-0.5-1.5-0.4-0.4-1.4-0.4h-1.1v6.7h-3zm4.1 6.8q1 0 1.4-0.4 0.5-0.4 0.5-1.3v-1.2q0-0.8-0.4-1.2-0.4-0.4-1.2-0.4h-1.4v4.5z"/>
				</g>
				<g id="&lt;Group&gt;">
					<path id="&lt;Compound Path&gt;" class="s2" d="m202.4 230.6h3.8l2.9 9.5h0.1v-9.5h2.7v15.8h-3.1l-3.6-11.5h-0.1v11.5h-2.7z"/>
				</g>
				<g id="&lt;Group&gt;">
					<path id="&lt;Compound Path&gt;" class="s2" d="m216.1 230.6h3v15.8h-3z"/>
				</g>
				<g id="&lt;Group&gt;">
					<path id="&lt;Compound Path&gt;" fill-rule="evenodd" class="s2" d="m225.6 230.6h4.1l3.1 15.8h-3l-0.5-3.1h-3.5l-0.5 3.1h-2.8zm3.3 10.5l-1.4-7.8-1.3 7.9z"/>
				</g>
			</g>
		</g>
	</g>
</svg>